Coordinates
version=1
nRows=10
nColumns=33
inDegrees=yes

Units are S.I. units (second, meters, Newtons, ...)
Angles are in degrees.

endheader
time	ground_thorax_rot_x	ground_thorax_rot_y	ground_thorax_rot_z	ground_thorax_tx	ground_thorax_ty	ground_thorax_tz	clav_prot_r	clav_elev_r	scapula_abduction_r	scapula_elevation_r	scapula_upward_rot_r	scapula_winging_r	shoulder_elv_r	plane_of_elev_r	axial_rot_r	elbow_flexion_r	pro_sup_r	wrist_flex_r	wrist_dev_r	clav_prot_l	clav_elev_l	scapula_abduction_l	scapula_elevation_l	scapula_upward_rot_l	scapula_winging_l	shoulder_elv_l	plane_of_elev_l	axial_rot_l	elbow_flexion_l	pro_sup_l	wrist_flex_l	wrist_dev_l
      7.04000000	     37.10883091	      8.19519774	     12.73439235	   -220.22997957	    821.90935587	     -1.48774115	     15.51260650	     37.63244512	     38.73633821	     45.00000000	    -45.00000000	   2074.88738627	   -826.00604550	    146.50891852	    179.99999979	   1090.41344233	     55.86056085	     24.96215570	      9.34310759	     10.04967624	    -45.00000000	    -39.24263296	     45.00000000	    -37.83604808	   -621.80605363	   -645.48359716	     24.35104489	    -15.09583901	   1086.35964182	     33.59361714	      7.55792184	    -24.26194761
      7.05000000	     37.14145915	      8.35057115	     12.86028680	   -220.71220783	    821.37041413	     -1.43797647	     15.35827674	     37.78065668	     38.55238071	     45.00000000	    -45.00000000	   2074.94744626	   -825.93647145	    146.51155180	    179.99999979	   1090.40082102	     56.09488638	     24.80032897	      9.41845809	     10.06731846	    -45.00000000	    -39.04647341	     45.00000000	    -38.85611494	   -621.84303600	   -645.51927902	     24.48255742	    -15.42472711	   1086.39904160	     33.50806055	      6.96554820	    -24.01112827
      7.06000000	     37.09854053	      8.49513245	     13.04437922	   -220.91533540	    820.84752754	     -1.38540956	     15.48006667	     37.55952900	     38.45800796	     45.00000000	    -45.00000000	   2074.96375028	   -826.01931345	    146.53549095	    179.99999979	   1090.69588376	     56.18872876	     24.87635168	      9.25868877	     10.16095439	    -45.00000000	    -38.80629843	     45.00000000	    -38.99675154	   -621.92267608	   -645.47434511	     24.36437269	    -15.46941297	   1086.40435038	     33.50539581	      7.07025115	    -24.00032346
      7.07000000	     37.12594295	      8.42141644	     12.84780286	   -220.85776391	    820.34703413	     -1.33432806	     15.41329580	     37.81665589	     38.46651045	     45.00000000	    -45.00000000	   2075.16156168	   -825.96195859	    146.54818854	    179.99999979	   1090.65537012	     56.34232205	     24.76364330	      9.23570409	     10.14678687	    -45.00000000	    -38.98613045	     45.00000000	    -39.16043748	   -621.90143205	   -645.62167168	     24.47443864	    -15.45133816	   1086.60884445	     33.42517288	      6.88143803	    -23.99046946
      7.08000000	     37.13108156	      8.51539049	     12.90342511	   -220.57081120	    819.87151723	     -1.28773958	     15.50719076	     37.53506589	     38.44320678	     45.00000000	    -45.00000000	   2075.19824086	   -825.99012062	    146.56063760	    179.99999979	   1090.78009969	     56.45521802	     24.70980520	      9.11491645	     10.22162005	    -45.00000000	    -38.82727998	     45.00000000	    -39.11690342	   -622.07376772	   -645.58610293	     24.38232716	    -15.45210145	   1086.52069784	     33.40695872	      6.88258615	    -23.95286290
      7.09000000	     37.08804706	      8.61835087	     12.87335425	   -220.07890170	    819.41568461	     -1.25241708	     15.29631500	     37.70564233	     38.13792429	     45.00000000	    -45.00000000	   2075.46287341	   -825.74899563	    146.52677133	    179.99999979	   1090.98741393	     56.55617951	     24.60550979	      8.99544752	     10.29634891	    -45.00000000	    -39.08193192	     45.00000000	    -39.16817210	   -622.04485177	   -645.65937270	     24.45509750	    -15.49609663	   1086.64241167	     33.37775186	      6.77231837	    -23.95714068
      7.10000000	     37.11636758	      8.66526265	     12.82738332	   -219.43332565	    818.98210586	     -1.23378262	     15.16236145	     37.50546347	     38.14867588	     45.00000000	    -45.00000000	   2075.54761526	   -825.76439319	    146.54100031	    179.99999979	   1091.12624581	     56.67548018	     24.51360379	      8.87541225	     10.45743475	    -45.00000000	    -39.05967746	     45.00000000	    -39.06323800	   -622.11077812	   -645.70371629	     24.40306718	    -15.57910615	   1086.78753164	     33.39818986	      6.68701228	    -23.96580971
      7.11000000	     37.13624095	      8.61579025	     12.81828005	   -218.67084055	    818.56870113	     -1.24103008	     15.10367186	     37.52904060	     38.31964500	     45.00000000	    -45.00000000	   2075.52773031	   -825.81656987	    146.53602757	    179.99999979	   1091.47146323	     56.77389808	     24.44885366	      8.73129399	     10.51112992	    -45.00000000	    -39.04044780	     45.00000000	    -38.95766906	   -622.12394716	   -645.74205073	     24.41208306	    -15.77943697	   1086.84049941	     33.49566529	      6.57630581	    -23.95743621
      7.12000000	     37.15139079	      8.69816146	     12.80509571	   -217.84661249	    818.18970698	     -1.28021007	     15.10103981	     37.52722975	     38.31267690	     45.00000000	    -45.00000000	   2075.66960588	   -825.72035300	    146.58464148	    179.99999979	   1091.53826707	     56.88470293	     24.34150409	      8.61588998	     10.52018138	    -45.00000000	    -39.14421575	     45.00000000	    -38.85125689	   -622.19186733	   -645.75558287	     24.35682762	    -15.99021378	   1086.95879346	     33.63832507	      6.45946014	    -23.96534284
      7.13000000	     37.12798911	      8.75981141	     12.81320258	   -216.99488799	    817.85971280	     -1.35654729	     15.05605101	     37.52547767	     38.28160096	     45.00000000	    -45.00000000	   2075.74111077	   -825.69662448	    146.50121108	    179.99999979	   1091.71130433	     56.96915096	     24.25409356	      8.49787338	     10.56673304	    -45.00000000	    -39.22465301	     45.00000000	    -38.74546053	   -622.21171443	   -645.74476458	     24.29898787	    -16.23427284	   1087.02784668	     33.83322200	      6.34557648	    -23.96330197
